<svg width="25" height="25" viewBox="0 0 25 25" fill="none" xmlns="http://www.w3.org/2000/svg">
<path d="M3.5 9.9C3.5 7.65979 3.5 6.53968 3.93597 5.68404C4.31947 4.93139 4.93139 4.31947 5.68404 3.93597C6.53968 3.5 7.65979 3.5 9.9 3.5H15.1C17.3402 3.5 18.4603 3.5 19.316 3.93597C20.0686 4.31947 20.6805 4.93139 21.064 5.68404C21.5 6.53968 21.5 7.65979 21.5 9.9V15.1C21.5 17.3402 21.5 18.4603 21.064 19.316C20.6805 20.0686 20.0686 20.6805 19.316 21.064C18.4603 21.5 17.3402 21.5 15.1 21.5H9.9C7.65979 21.5 6.53968 21.5 5.68404 21.064C4.93139 20.6805 4.31947 20.0686 3.93597 19.316C3.5 18.4603 3.5 17.3402 3.5 15.1V9.9Z" fill="#F8B827"/>
<path fill-rule="evenodd" clip-rule="evenodd" d="M11.5 8.5C11.5 7.94772 11.9477 7.5 12.5 7.5H16.5C17.0523 7.5 17.5 7.94772 17.5 8.5C17.5 9.05228 17.0523 9.5 16.5 9.5H12.5C11.9477 9.5 11.5 9.05228 11.5 8.5ZM12.5 11.5C11.9477 11.5 11.5 11.9477 11.5 12.5C11.5 13.0523 11.9477 13.5 12.5 13.5H16.5C17.0523 13.5 17.5 13.0523 17.5 12.5C17.5 11.9477 17.0523 11.5 16.5 11.5H12.5ZM12.5 15.5C11.9477 15.5 11.5 15.9477 11.5 16.5C11.5 17.0523 11.9477 17.5 12.5 17.5H16.5C17.0523 17.5 17.5 17.0523 17.5 16.5C17.5 15.9477 17.0523 15.5 16.5 15.5H12.5ZM8.5 17.5C9.05228 17.5 9.5 17.0523 9.5 16.5C9.5 15.9477 9.05228 15.5 8.5 15.5C7.94772 15.5 7.5 15.9477 7.5 16.5C7.5 17.0523 7.94772 17.5 8.5 17.5ZM9.5 12.5C9.5 13.0523 9.05228 13.5 8.5 13.5C7.94772 13.5 7.5 13.0523 7.5 12.5C7.5 11.9477 7.94772 11.5 8.5 11.5C9.05228 11.5 9.5 11.9477 9.5 12.5ZM8.5 9.5C9.05228 9.5 9.5 9.05228 9.5 8.5C9.5 7.94772 9.05228 7.5 8.5 7.5C7.94772 7.5 7.5 7.94772 7.5 8.5C7.5 9.05228 7.94772 9.5 8.5 9.5Z" fill="#292D8B"/>
</svg>
