<svg width="25" height="25" viewBox="0 0 25 25" fill="none" xmlns="http://www.w3.org/2000/svg">
<path d="M13.1708 3.71744C12.7485 3.5063 12.2515 3.5063 11.8292 3.71744L6.32918 6.46744C5.821 6.72153 5.5 7.24092 5.5 7.80908V18.5001C5.5 20.1569 6.84315 21.5001 8.5 21.5001H16.5C18.1569 21.5001 19.5 20.1569 19.5 18.5001V7.80908C19.5 7.24092 19.179 6.72153 18.6708 6.46744L13.1708 3.71744Z" fill="#F8B827"/>
<path fill-rule="evenodd" clip-rule="evenodd" d="M14.5 21.5H10.5V17.5C10.5 16.3954 11.3954 15.5 12.5 15.5C13.6046 15.5 14.5 16.3954 14.5 17.5V21.5Z" fill="#292D8B"/>
<path fill-rule="evenodd" clip-rule="evenodd" d="M3.60558 8.94724C3.85257 9.44122 4.45324 9.64144 4.94722 9.39445L12.5 5.61806L20.0528 9.39445C20.5468 9.64144 21.1474 9.44122 21.3944 8.94724C21.6414 8.45326 21.4412 7.85259 20.9472 7.6056L12.9472 3.6056C12.6657 3.46483 12.3343 3.46483 12.0528 3.6056L4.05279 7.6056C3.55881 7.85259 3.35859 8.45326 3.60558 8.94724Z" fill="#292D8B"/>
</svg>
