<svg width="19" height="18" viewBox="0 0 19 18" fill="none" xmlns="http://www.w3.org/2000/svg">
<path d="M8 5.37109V12.6289C7.99999 13.0242 7.99998 13.3654 8.02293 13.6463C8.04716 13.9428 8.10064 14.2377 8.24524 14.5215C8.46095 14.9448 8.80516 15.2891 9.22852 15.5048C9.51231 15.6494 9.80722 15.7028 10.1037 15.7271C10.3847 15.75 10.7257 15.75 11.1211 15.75H13.1289C13.5243 15.75 13.8653 15.75 14.1463 15.7271C14.4428 15.7028 14.7377 15.6494 15.0215 15.5048C15.4448 15.2891 15.7891 14.9448 16.0048 14.5215C16.1494 14.2377 16.2029 13.9428 16.2271 13.6463C16.25 13.3653 16.25 13.0243 16.25 12.6289V5.37111C16.25 4.97575 16.25 4.63466 16.2271 4.35373C16.2029 4.05722 16.1494 3.76231 16.0048 3.47852C15.7891 3.05516 15.4448 2.71095 15.0215 2.49524C14.7377 2.35064 14.4428 2.29715 14.1463 2.27293C13.8653 2.24998 13.5243 2.24999 13.1289 2.25H11.1211C10.7257 2.24999 10.3847 2.24998 10.1037 2.27293C9.80722 2.29715 9.51231 2.35064 9.22852 2.49524C8.80516 2.71095 8.46095 3.05516 8.24524 3.47852C8.10064 3.76231 8.04716 4.05722 8.02293 4.35373C7.99998 4.63465 7.99999 4.97575 8 5.37109Z" fill="#F8B827"/>
<path d="M3.5 9.75C3.08579 9.75 2.75 9.41421 2.75 9C2.75 8.58579 3.08579 8.25 3.5 8.25H10.6893L9.71967 7.28033C9.42678 6.98744 9.42678 6.51256 9.71967 6.21967C10.0126 5.92678 10.4874 5.92678 10.7803 6.21967L13.0303 8.46967C13.3232 8.76256 13.3232 9.23744 13.0303 9.53033L10.7803 11.7803C10.4874 12.0732 10.0126 12.0732 9.71967 11.7803C9.42678 11.4874 9.42678 11.0126 9.71967 10.7197L10.6893 9.75H3.5Z" fill="white"/>
</svg>
